<mxfile host="app.diagrams.net" modified="2022-06-26T14:28:45.467Z" agent="5.0 (X11; Linux x86_64) AppleWebKit/537.36 (KHTML, like Gecko) Chrome/103.0.5060.53 Safari/537.36" etag="RGkzST6OK6GPwrpyIYqu" version="18.1.2" type="github">
  <diagram id="XvLiyzdCK0Db-P-G4vPi" name="Overall Architecure">
    <mxGraphModel dx="1010" dy="572" grid="1" gridSize="10" guides="1" tooltips="1" connect="1" arrows="1" fold="1" page="1" pageScale="1" pageWidth="850" pageHeight="1100" math="0" shadow="0">
      <root>
        <mxCell id="0" />
        <mxCell id="1" parent="0" />
        <mxCell id="a7_u2hsU15llX_X937QP-4" style="edgeStyle=orthogonalEdgeStyle;rounded=0;orthogonalLoop=1;jettySize=auto;html=1;entryX=0;entryY=0.5;entryDx=0;entryDy=0;" edge="1" parent="1" source="a7_u2hsU15llX_X937QP-1" target="a7_u2hsU15llX_X937QP-3">
          <mxGeometry relative="1" as="geometry" />
        </mxCell>
        <mxCell id="a7_u2hsU15llX_X937QP-1" value="Client" style="shape=umlActor;verticalLabelPosition=bottom;verticalAlign=top;html=1;outlineConnect=0;" vertex="1" parent="1">
          <mxGeometry x="100" y="100" width="30" height="60" as="geometry" />
        </mxCell>
        <mxCell id="a7_u2hsU15llX_X937QP-8" value="" style="edgeStyle=orthogonalEdgeStyle;rounded=0;orthogonalLoop=1;jettySize=auto;html=1;" edge="1" parent="1" source="a7_u2hsU15llX_X937QP-3" target="a7_u2hsU15llX_X937QP-7">
          <mxGeometry relative="1" as="geometry" />
        </mxCell>
        <mxCell id="a7_u2hsU15llX_X937QP-3" value="HTTP Proxy&lt;br&gt;(Caddy)" style="rounded=0;whiteSpace=wrap;html=1;" vertex="1" parent="1">
          <mxGeometry x="230" y="100" width="120" height="60" as="geometry" />
        </mxCell>
        <mxCell id="a7_u2hsU15llX_X937QP-12" value="" style="edgeStyle=orthogonalEdgeStyle;rounded=0;orthogonalLoop=1;jettySize=auto;html=1;" edge="1" parent="1" source="a7_u2hsU15llX_X937QP-7" target="a7_u2hsU15llX_X937QP-11">
          <mxGeometry relative="1" as="geometry" />
        </mxCell>
        <mxCell id="a7_u2hsU15llX_X937QP-7" value="API Gateway&lt;br&gt;(KrakenD)" style="rounded=0;whiteSpace=wrap;html=1;" vertex="1" parent="1">
          <mxGeometry x="430" y="100" width="120" height="60" as="geometry" />
        </mxCell>
        <mxCell id="a7_u2hsU15llX_X937QP-13" value="" style="swimlane;startSize=0;" vertex="1" parent="1">
          <mxGeometry x="250" y="220" width="470" height="200" as="geometry" />
        </mxCell>
        <mxCell id="a7_u2hsU15llX_X937QP-18" style="edgeStyle=orthogonalEdgeStyle;rounded=0;orthogonalLoop=1;jettySize=auto;html=1;" edge="1" parent="a7_u2hsU15llX_X937QP-13" source="a7_u2hsU15llX_X937QP-11" target="a7_u2hsU15llX_X937QP-17">
          <mxGeometry relative="1" as="geometry" />
        </mxCell>
        <mxCell id="a7_u2hsU15llX_X937QP-19" style="edgeStyle=orthogonalEdgeStyle;rounded=0;orthogonalLoop=1;jettySize=auto;html=1;" edge="1" parent="a7_u2hsU15llX_X937QP-13" source="a7_u2hsU15llX_X937QP-11" target="a7_u2hsU15llX_X937QP-16">
          <mxGeometry relative="1" as="geometry" />
        </mxCell>
        <mxCell id="a7_u2hsU15llX_X937QP-11" value="Message Broker / Event Store&lt;br&gt;(NATS)" style="rounded=0;whiteSpace=wrap;html=1;" vertex="1" parent="a7_u2hsU15llX_X937QP-13">
          <mxGeometry x="180" y="20" width="120" height="60" as="geometry" />
        </mxCell>
        <mxCell id="a7_u2hsU15llX_X937QP-14" value="POST Stream" style="rounded=0;whiteSpace=wrap;html=1;" vertex="1" parent="a7_u2hsU15llX_X937QP-13">
          <mxGeometry x="20" y="120" width="120" height="60" as="geometry" />
        </mxCell>
        <mxCell id="a7_u2hsU15llX_X937QP-15" value="" style="edgeStyle=orthogonalEdgeStyle;rounded=0;orthogonalLoop=1;jettySize=auto;html=1;" edge="1" parent="a7_u2hsU15llX_X937QP-13" source="a7_u2hsU15llX_X937QP-11" target="a7_u2hsU15llX_X937QP-14">
          <mxGeometry relative="1" as="geometry" />
        </mxCell>
        <mxCell id="a7_u2hsU15llX_X937QP-16" value="USER Stream" style="rounded=0;whiteSpace=wrap;html=1;" vertex="1" parent="a7_u2hsU15llX_X937QP-13">
          <mxGeometry x="180" y="120" width="120" height="60" as="geometry" />
        </mxCell>
        <mxCell id="a7_u2hsU15llX_X937QP-17" value="INTEREST Stream" style="rounded=0;whiteSpace=wrap;html=1;" vertex="1" parent="a7_u2hsU15llX_X937QP-13">
          <mxGeometry x="340" y="120" width="120" height="60" as="geometry" />
        </mxCell>
        <mxCell id="a7_u2hsU15llX_X937QP-66" style="edgeStyle=orthogonalEdgeStyle;rounded=0;jumpStyle=arc;jumpSize=13;orthogonalLoop=1;jettySize=auto;html=1;entryX=0.5;entryY=0;entryDx=0;entryDy=0;entryPerimeter=0;" edge="1" parent="1" source="a7_u2hsU15llX_X937QP-20" target="a7_u2hsU15llX_X937QP-64">
          <mxGeometry relative="1" as="geometry" />
        </mxCell>
        <mxCell id="a7_u2hsU15llX_X937QP-20" value="Post Service" style="rounded=0;whiteSpace=wrap;html=1;" vertex="1" parent="1">
          <mxGeometry x="40" y="510" width="120" height="60" as="geometry" />
        </mxCell>
        <mxCell id="a7_u2hsU15llX_X937QP-21" value="" style="edgeStyle=orthogonalEdgeStyle;rounded=0;orthogonalLoop=1;jettySize=auto;html=1;" edge="1" parent="1" source="a7_u2hsU15llX_X937QP-14" target="a7_u2hsU15llX_X937QP-20">
          <mxGeometry relative="1" as="geometry" />
        </mxCell>
        <mxCell id="a7_u2hsU15llX_X937QP-23" value="PUSH" style="edgeLabel;html=1;align=center;verticalAlign=middle;resizable=0;points=[];" vertex="1" connectable="0" parent="a7_u2hsU15llX_X937QP-21">
          <mxGeometry x="-0.1724" relative="1" as="geometry">
            <mxPoint x="-42" y="118" as="offset" />
          </mxGeometry>
        </mxCell>
        <mxCell id="a7_u2hsU15llX_X937QP-70" style="edgeStyle=orthogonalEdgeStyle;rounded=0;jumpStyle=arc;jumpSize=13;orthogonalLoop=1;jettySize=auto;html=1;entryX=0.5;entryY=0;entryDx=0;entryDy=0;entryPerimeter=0;" edge="1" parent="1" source="a7_u2hsU15llX_X937QP-22" target="a7_u2hsU15llX_X937QP-68">
          <mxGeometry relative="1" as="geometry" />
        </mxCell>
        <mxCell id="a7_u2hsU15llX_X937QP-22" value="Abuse Service" style="rounded=0;whiteSpace=wrap;html=1;" vertex="1" parent="1">
          <mxGeometry x="170" y="510" width="120" height="60" as="geometry" />
        </mxCell>
        <mxCell id="a7_u2hsU15llX_X937QP-24" style="edgeStyle=orthogonalEdgeStyle;rounded=0;orthogonalLoop=1;jettySize=auto;html=1;" edge="1" parent="1" source="a7_u2hsU15llX_X937QP-14" target="a7_u2hsU15llX_X937QP-22">
          <mxGeometry relative="1" as="geometry" />
        </mxCell>
        <mxCell id="a7_u2hsU15llX_X937QP-25" value="PUSH" style="edgeLabel;html=1;align=center;verticalAlign=middle;resizable=0;points=[];" vertex="1" connectable="0" parent="a7_u2hsU15llX_X937QP-24">
          <mxGeometry x="0.8354" y="1" relative="1" as="geometry">
            <mxPoint x="-1" y="-3" as="offset" />
          </mxGeometry>
        </mxCell>
        <mxCell id="a7_u2hsU15llX_X937QP-80" style="edgeStyle=orthogonalEdgeStyle;rounded=0;jumpStyle=arc;jumpSize=13;orthogonalLoop=1;jettySize=auto;html=1;entryX=0.5;entryY=0;entryDx=0;entryDy=0;entryPerimeter=0;" edge="1" parent="1" source="a7_u2hsU15llX_X937QP-26" target="a7_u2hsU15llX_X937QP-77">
          <mxGeometry relative="1" as="geometry" />
        </mxCell>
        <mxCell id="a7_u2hsU15llX_X937QP-26" value="User Service" style="rounded=0;whiteSpace=wrap;html=1;" vertex="1" parent="1">
          <mxGeometry x="560" y="510" width="120" height="60" as="geometry" />
        </mxCell>
        <mxCell id="a7_u2hsU15llX_X937QP-83" style="edgeStyle=orthogonalEdgeStyle;rounded=0;jumpStyle=arc;jumpSize=13;orthogonalLoop=1;jettySize=auto;html=1;" edge="1" parent="1" source="a7_u2hsU15llX_X937QP-29" target="a7_u2hsU15llX_X937QP-81">
          <mxGeometry relative="1" as="geometry" />
        </mxCell>
        <mxCell id="a7_u2hsU15llX_X937QP-29" value="Interest&amp;nbsp;Service" style="rounded=0;whiteSpace=wrap;html=1;" vertex="1" parent="1">
          <mxGeometry x="690" y="510" width="120" height="60" as="geometry" />
        </mxCell>
        <mxCell id="a7_u2hsU15llX_X937QP-73" style="edgeStyle=orthogonalEdgeStyle;rounded=0;jumpStyle=arc;jumpSize=13;orthogonalLoop=1;jettySize=auto;html=1;entryX=0.5;entryY=0;entryDx=0;entryDy=0;entryPerimeter=0;" edge="1" parent="1" source="a7_u2hsU15llX_X937QP-33" target="a7_u2hsU15llX_X937QP-71">
          <mxGeometry relative="1" as="geometry" />
        </mxCell>
        <mxCell id="a7_u2hsU15llX_X937QP-33" value="Timeline Service" style="rounded=0;whiteSpace=wrap;html=1;" vertex="1" parent="1">
          <mxGeometry x="300" y="510" width="120" height="60" as="geometry" />
        </mxCell>
        <mxCell id="a7_u2hsU15llX_X937QP-37" style="edgeStyle=orthogonalEdgeStyle;rounded=0;orthogonalLoop=1;jettySize=auto;html=1;entryX=0.75;entryY=0;entryDx=0;entryDy=0;" edge="1" parent="1" source="a7_u2hsU15llX_X937QP-16" target="a7_u2hsU15llX_X937QP-33">
          <mxGeometry relative="1" as="geometry">
            <Array as="points">
              <mxPoint x="490" y="455" />
              <mxPoint x="390" y="455" />
            </Array>
          </mxGeometry>
        </mxCell>
        <mxCell id="a7_u2hsU15llX_X937QP-41" value="PUSH" style="edgeLabel;html=1;align=center;verticalAlign=middle;resizable=0;points=[];" vertex="1" connectable="0" parent="a7_u2hsU15llX_X937QP-37">
          <mxGeometry x="0.3138" relative="1" as="geometry">
            <mxPoint x="-17" y="35" as="offset" />
          </mxGeometry>
        </mxCell>
        <mxCell id="a7_u2hsU15llX_X937QP-39" style="edgeStyle=orthogonalEdgeStyle;rounded=0;orthogonalLoop=1;jettySize=auto;html=1;" edge="1" parent="1" source="a7_u2hsU15llX_X937QP-38" target="a7_u2hsU15llX_X937QP-7">
          <mxGeometry relative="1" as="geometry" />
        </mxCell>
        <mxCell id="a7_u2hsU15llX_X937QP-38" value="User Management&lt;br&gt;(Ory / Firebase(" style="rounded=0;whiteSpace=wrap;html=1;" vertex="1" parent="1">
          <mxGeometry x="630" y="100" width="120" height="60" as="geometry" />
        </mxCell>
        <mxCell id="a7_u2hsU15llX_X937QP-42" style="edgeStyle=orthogonalEdgeStyle;rounded=0;orthogonalLoop=1;jettySize=auto;html=1;exitX=0.25;exitY=0;exitDx=0;exitDy=0;" edge="1" parent="1" source="a7_u2hsU15llX_X937QP-33" target="a7_u2hsU15llX_X937QP-14">
          <mxGeometry relative="1" as="geometry">
            <Array as="points">
              <mxPoint x="330" y="490" />
              <mxPoint x="330" y="490" />
            </Array>
          </mxGeometry>
        </mxCell>
        <mxCell id="a7_u2hsU15llX_X937QP-43" value="PULL" style="edgeLabel;html=1;align=center;verticalAlign=middle;resizable=0;points=[];" vertex="1" connectable="0" parent="a7_u2hsU15llX_X937QP-42">
          <mxGeometry x="0.2326" y="1" relative="1" as="geometry">
            <mxPoint x="1" y="48" as="offset" />
          </mxGeometry>
        </mxCell>
        <mxCell id="a7_u2hsU15llX_X937QP-47" style="edgeStyle=orthogonalEdgeStyle;rounded=0;orthogonalLoop=1;jettySize=auto;html=1;exitX=0.25;exitY=0;exitDx=0;exitDy=0;entryX=0.5;entryY=1;entryDx=0;entryDy=0;jumpStyle=arc;jumpSize=13;" edge="1" parent="1" source="a7_u2hsU15llX_X937QP-44" target="a7_u2hsU15llX_X937QP-14">
          <mxGeometry relative="1" as="geometry">
            <Array as="points">
              <mxPoint x="460" y="440" />
              <mxPoint x="330" y="440" />
            </Array>
          </mxGeometry>
        </mxCell>
        <mxCell id="a7_u2hsU15llX_X937QP-48" value="PULL" style="edgeLabel;html=1;align=center;verticalAlign=middle;resizable=0;points=[];" vertex="1" connectable="0" parent="a7_u2hsU15llX_X937QP-47">
          <mxGeometry x="-0.844" y="-1" relative="1" as="geometry">
            <mxPoint y="-11" as="offset" />
          </mxGeometry>
        </mxCell>
        <mxCell id="a7_u2hsU15llX_X937QP-49" style="edgeStyle=orthogonalEdgeStyle;rounded=0;jumpStyle=arc;jumpSize=13;orthogonalLoop=1;jettySize=auto;html=1;exitX=0.75;exitY=0;exitDx=0;exitDy=0;entryX=0.25;entryY=1;entryDx=0;entryDy=0;" edge="1" parent="1" source="a7_u2hsU15llX_X937QP-44" target="a7_u2hsU15llX_X937QP-17">
          <mxGeometry relative="1" as="geometry" />
        </mxCell>
        <mxCell id="a7_u2hsU15llX_X937QP-50" value="PULL" style="edgeLabel;html=1;align=center;verticalAlign=middle;resizable=0;points=[];" vertex="1" connectable="0" parent="a7_u2hsU15llX_X937QP-49">
          <mxGeometry x="-0.6122" y="-4" relative="1" as="geometry">
            <mxPoint x="-4" y="11" as="offset" />
          </mxGeometry>
        </mxCell>
        <mxCell id="a7_u2hsU15llX_X937QP-76" style="edgeStyle=orthogonalEdgeStyle;rounded=0;jumpStyle=arc;jumpSize=13;orthogonalLoop=1;jettySize=auto;html=1;" edge="1" parent="1" source="a7_u2hsU15llX_X937QP-44" target="a7_u2hsU15llX_X937QP-74">
          <mxGeometry relative="1" as="geometry" />
        </mxCell>
        <mxCell id="a7_u2hsU15llX_X937QP-44" value="Recommendation Service" style="rounded=0;whiteSpace=wrap;html=1;" vertex="1" parent="1">
          <mxGeometry x="430" y="510" width="120" height="60" as="geometry" />
        </mxCell>
        <mxCell id="a7_u2hsU15llX_X937QP-45" style="edgeStyle=orthogonalEdgeStyle;rounded=0;orthogonalLoop=1;jettySize=auto;html=1;" edge="1" parent="1" source="a7_u2hsU15llX_X937QP-44" target="a7_u2hsU15llX_X937QP-16">
          <mxGeometry relative="1" as="geometry" />
        </mxCell>
        <mxCell id="a7_u2hsU15llX_X937QP-46" value="PULL" style="edgeLabel;html=1;align=center;verticalAlign=middle;resizable=0;points=[];" vertex="1" connectable="0" parent="a7_u2hsU15llX_X937QP-45">
          <mxGeometry x="0.2395" y="-4" relative="1" as="geometry">
            <mxPoint x="-4" y="58" as="offset" />
          </mxGeometry>
        </mxCell>
        <mxCell id="a7_u2hsU15llX_X937QP-52" style="edgeStyle=orthogonalEdgeStyle;rounded=0;jumpStyle=arc;jumpSize=13;orthogonalLoop=1;jettySize=auto;html=1;" edge="1" parent="1" source="a7_u2hsU15llX_X937QP-17" target="a7_u2hsU15llX_X937QP-29">
          <mxGeometry relative="1" as="geometry" />
        </mxCell>
        <mxCell id="a7_u2hsU15llX_X937QP-53" value="PUSH" style="edgeLabel;html=1;align=center;verticalAlign=middle;resizable=0;points=[];" vertex="1" connectable="0" parent="a7_u2hsU15llX_X937QP-52">
          <mxGeometry x="0.5668" y="-4" relative="1" as="geometry">
            <mxPoint x="14" y="25" as="offset" />
          </mxGeometry>
        </mxCell>
        <mxCell id="a7_u2hsU15llX_X937QP-54" style="edgeStyle=orthogonalEdgeStyle;rounded=0;jumpStyle=arc;jumpSize=13;orthogonalLoop=1;jettySize=auto;html=1;exitX=0.75;exitY=1;exitDx=0;exitDy=0;entryX=0.25;entryY=0;entryDx=0;entryDy=0;" edge="1" parent="1" source="a7_u2hsU15llX_X937QP-16" target="a7_u2hsU15llX_X937QP-29">
          <mxGeometry relative="1" as="geometry">
            <Array as="points">
              <mxPoint x="530" y="400" />
              <mxPoint x="530" y="470" />
              <mxPoint x="720" y="470" />
            </Array>
          </mxGeometry>
        </mxCell>
        <mxCell id="a7_u2hsU15llX_X937QP-55" value="PUSH" style="edgeLabel;html=1;align=center;verticalAlign=middle;resizable=0;points=[];" vertex="1" connectable="0" parent="a7_u2hsU15llX_X937QP-54">
          <mxGeometry x="0.7778" y="-2" relative="1" as="geometry">
            <mxPoint x="-8" y="14" as="offset" />
          </mxGeometry>
        </mxCell>
        <mxCell id="a7_u2hsU15llX_X937QP-56" style="edgeStyle=orthogonalEdgeStyle;rounded=0;jumpStyle=arc;jumpSize=13;orthogonalLoop=1;jettySize=auto;html=1;exitX=0.75;exitY=1;exitDx=0;exitDy=0;" edge="1" parent="1" source="a7_u2hsU15llX_X937QP-16" target="a7_u2hsU15llX_X937QP-26">
          <mxGeometry relative="1" as="geometry">
            <Array as="points">
              <mxPoint x="530" y="400" />
              <mxPoint x="530" y="470" />
              <mxPoint x="620" y="470" />
            </Array>
          </mxGeometry>
        </mxCell>
        <mxCell id="a7_u2hsU15llX_X937QP-57" value="PUSH" style="edgeLabel;html=1;align=center;verticalAlign=middle;resizable=0;points=[];" vertex="1" connectable="0" parent="a7_u2hsU15llX_X937QP-56">
          <mxGeometry x="0.71" y="-2" relative="1" as="geometry">
            <mxPoint x="2" y="10" as="offset" />
          </mxGeometry>
        </mxCell>
        <mxCell id="a7_u2hsU15llX_X937QP-64" value="Post View" style="shape=cylinder3;whiteSpace=wrap;html=1;boundedLbl=1;backgroundOutline=1;size=15;" vertex="1" parent="1">
          <mxGeometry x="70" y="600" width="60" height="80" as="geometry" />
        </mxCell>
        <mxCell id="a7_u2hsU15llX_X937QP-67" value="MongoDB" style="text;html=1;strokeColor=none;fillColor=none;align=center;verticalAlign=middle;whiteSpace=wrap;rounded=0;" vertex="1" parent="1">
          <mxGeometry x="70" y="690" width="60" height="30" as="geometry" />
        </mxCell>
        <mxCell id="a7_u2hsU15llX_X937QP-68" value="Abuse View" style="shape=cylinder3;whiteSpace=wrap;html=1;boundedLbl=1;backgroundOutline=1;size=15;" vertex="1" parent="1">
          <mxGeometry x="200" y="600" width="60" height="80" as="geometry" />
        </mxCell>
        <mxCell id="a7_u2hsU15llX_X937QP-69" value="MongoDB" style="text;html=1;strokeColor=none;fillColor=none;align=center;verticalAlign=middle;whiteSpace=wrap;rounded=0;" vertex="1" parent="1">
          <mxGeometry x="200" y="690" width="60" height="30" as="geometry" />
        </mxCell>
        <mxCell id="a7_u2hsU15llX_X937QP-71" value="Timeline View" style="shape=cylinder3;whiteSpace=wrap;html=1;boundedLbl=1;backgroundOutline=1;size=15;" vertex="1" parent="1">
          <mxGeometry x="330" y="600" width="60" height="80" as="geometry" />
        </mxCell>
        <mxCell id="a7_u2hsU15llX_X937QP-72" value="MongoDB" style="text;html=1;strokeColor=none;fillColor=none;align=center;verticalAlign=middle;whiteSpace=wrap;rounded=0;" vertex="1" parent="1">
          <mxGeometry x="330" y="690" width="60" height="30" as="geometry" />
        </mxCell>
        <mxCell id="a7_u2hsU15llX_X937QP-74" value="Social Graph" style="shape=cylinder3;whiteSpace=wrap;html=1;boundedLbl=1;backgroundOutline=1;size=15;" vertex="1" parent="1">
          <mxGeometry x="460" y="600" width="60" height="80" as="geometry" />
        </mxCell>
        <mxCell id="a7_u2hsU15llX_X937QP-75" value="Neo4J" style="text;html=1;strokeColor=none;fillColor=none;align=center;verticalAlign=middle;whiteSpace=wrap;rounded=0;" vertex="1" parent="1">
          <mxGeometry x="460" y="690" width="60" height="30" as="geometry" />
        </mxCell>
        <mxCell id="a7_u2hsU15llX_X937QP-77" value="User View" style="shape=cylinder3;whiteSpace=wrap;html=1;boundedLbl=1;backgroundOutline=1;size=15;" vertex="1" parent="1">
          <mxGeometry x="590" y="600" width="60" height="80" as="geometry" />
        </mxCell>
        <mxCell id="a7_u2hsU15llX_X937QP-78" value="MongoDB" style="text;html=1;strokeColor=none;fillColor=none;align=center;verticalAlign=middle;whiteSpace=wrap;rounded=0;" vertex="1" parent="1">
          <mxGeometry x="590" y="690" width="60" height="30" as="geometry" />
        </mxCell>
        <mxCell id="a7_u2hsU15llX_X937QP-81" value="Interest View" style="shape=cylinder3;whiteSpace=wrap;html=1;boundedLbl=1;backgroundOutline=1;size=15;" vertex="1" parent="1">
          <mxGeometry x="720" y="600" width="60" height="80" as="geometry" />
        </mxCell>
        <mxCell id="a7_u2hsU15llX_X937QP-82" value="MongoDB" style="text;html=1;strokeColor=none;fillColor=none;align=center;verticalAlign=middle;whiteSpace=wrap;rounded=0;" vertex="1" parent="1">
          <mxGeometry x="720" y="690" width="60" height="30" as="geometry" />
        </mxCell>
      </root>
    </mxGraphModel>
  </diagram>
</mxfile>
